HIERARCHY
ROOT SpineBase
{
  OFFSET 0.000000 0.000000 0.000000
  CHANNELS 6 Xposition Yposition Zposition Zrotation Xrotation Yrotation
  JOINT SpineMid
  {
    OFFSET 0.000000 30.884461 0.000000
    CHANNELS 3 Zrotation Xrotation Yrotation
    JOINT SpineShoulder
    {
      OFFSET 0.212665 22.933946 -0.667214
      CHANNELS 3 Zrotation Xrotation Yrotation
      JOINT Neck
      {
        OFFSET 0.146035 7.580294 -0.538712
        CHANNELS 3 Zrotation Xrotation Yrotation
        JOINT Head
        {
          OFFSET -1.668494 15.079858 -2.827558
          CHANNELS 3 Zrotation Xrotation Yrotation
          End Site
          {
            OFFSET 0 0 0
          }
        }
      }
      JOINT ShoulderLeft
      {
        OFFSET -17.835495 -4.187935 -1.890664
        CHANNELS 3 Zrotation Xrotation Yrotation
        JOINT ElbowLeft
        {
          OFFSET -3.841843 -28.602086 2.465397
          CHANNELS 3 Zrotation Xrotation Yrotation
          JOINT WristLeft
          {
            OFFSET 0.087953 -23.143024 -4.055237
            CHANNELS 3 Zrotation Xrotation Yrotation
            JOINT HandLeft
            {
              OFFSET 0.755216 -3.322320 -1.091693
              CHANNELS 3 Zrotation Xrotation Yrotation
              JOINT HandTipLeft
              {
                OFFSET 1.727274 -7.361630 -1.416362
                CHANNELS 3 Zrotation Xrotation Yrotation
                End Site
                {
                  OFFSET 0 0 0
                }
              }
              JOINT ThumbLeft
              {
                OFFSET 5.079889 1.761430 -2.827179
                CHANNELS 3 Zrotation Xrotation Yrotation
                End Site
                {
                  OFFSET 0 0 0
                }
              }
            }
          }
        }
      }
      JOINT ShoulderRight
      {
        OFFSET 17.758646 -3.353167 -1.684013
        CHANNELS 3 Zrotation Xrotation Yrotation
        JOINT ElbowRight
        {
          OFFSET 5.299520 -29.365928 1.594927
          CHANNELS 3 Zrotation Xrotation Yrotation
          JOINT WristRight
          {
            OFFSET 1.052694 -22.682026 -6.577855
            CHANNELS 3 Zrotation Xrotation Yrotation
            JOINT HandRight
            {
              OFFSET -1.412111 -5.281314 -1.393444
              CHANNELS 3 Zrotation Xrotation Yrotation
              JOINT HandTipRight
              {
                OFFSET 0.390315 -6.187461 -1.837326
                CHANNELS 3 Zrotation Xrotation Yrotation
                End Site
                {
                  OFFSET 0 0 0
                }
              }
              JOINT ThumbRight
              {
                OFFSET 3.133595 -0.672206 -3.256177
                CHANNELS 3 Zrotation Xrotation Yrotation
                End Site
                {
                  OFFSET 0 0 0
                }
              }
            }
          }
        }
      }
    }
  }
  JOINT HipLeft
  {
    OFFSET -6.454137 0.633452 -3.854960
    CHANNELS 3 Zrotation Xrotation Yrotation
    JOINT KneeLeft
    {
      OFFSET -1.403388 -36.434347 4.658461
      CHANNELS 3 Zrotation Xrotation Yrotation
      JOINT AnkleLeft
      {
        OFFSET 0.229366 -36.409865 7.701843
        CHANNELS 3 Zrotation Xrotation Yrotation
        JOINT FootLeft
        {
          OFFSET 0.593733 -5.062288 -7.621288
          CHANNELS 3 Zrotation Xrotation Yrotation
          End Site
          {
            OFFSET 0 0 0
          }
        }
      }
    }
  }
  JOINT HipRight
  {
    OFFSET 7.917579 0.932341 -3.241847
    CHANNELS 3 Zrotation Xrotation Yrotation
    JOINT KneeRight
    {
      OFFSET 2.862795 -34.373189 2.730880
      CHANNELS 3 Zrotation Xrotation Yrotation
      JOINT AnkleRight
      {
        OFFSET -0.905649 -37.035907 9.082729
        CHANNELS 3 Zrotation Xrotation Yrotation
        JOINT FootRight
        {
          OFFSET 0.337633 -4.352594 -9.349481
          CHANNELS 3 Zrotation Xrotation Yrotation
          End Site
          {
            OFFSET 0 0 0
          }
        }
      }
    }
  }
}
MOTION
Frames: 16
Frame Time: 0.033333
-68.329422 86.546821 330.827577 -0.000000 0.000000 -2.442818 0.000000 0.000000 2.442818 -0.000000 0.000000 0.000000 -0.000000 0.000000 0.000000 0.000000 0.000000 0.000000 -0.000000 0.000000 0.000000 -0.000000 0.000000 0.000000 -0.000000 0.000000 0.000000 -0.000000 0.000000 0.000000 0.000000 0.000000 0.000000 0.000000 0.000000 0.000000 -0.000000 0.000000 0.000000 -0.000000 0.000000 0.000000 -0.000000 0.000000 0.000000 -0.000000 0.000000 0.000000 0.000000 0.000000 0.000000 0.000000 0.000000 0.000000 0.000000 0.000000 2.442818 -0.000000 0.000000 0.000000 -0.000000 0.000000 0.000000 0.000000 0.000000 0.000000 0.000000 0.000000 2.442818 -0.000000 0.000000 0.000000 -0.000000 0.000000 0.000000 0.000000 0.000000 0.000000
-68.299492 86.551775 330.831764 0.008617 0.063765 -2.448114 -0.005885 -0.064075 2.448106 -0.000000 0.000000 0.000000 -0.000000 0.000000 0.000000 0.000000 0.000000 0.000000 -0.000000 0.000000 0.000000 -0.000000 0.000000 0.000000 -0.000000 0.000000 0.000000 0.857229 -1.729349 -0.558422 0.000000 0.000000 0.000000 0.000000 0.000000 0.000000 -0.000000 0.000000 0.000000 -0.000000 0.000000 0.000000 -0.069892 -1.886220 0.523857 0.087179 1.885500 -0.526442 0.000000 0.000000 0.000000 0.000000 0.000000 0.000000 -0.005885 -0.064075 2.448106 -0.000000 0.000000 0.000000 -0.098896 -1.001191 0.031007 0.000000 0.000000 0.000000 -0.005885 -0.064075 2.448106 -0.000000 0.000000 0.000000 0.448959 4.416605 -0.589880 0.000000 0.000000 0.000000
-68.269657 86.554434 330.838696 0.016561 0.122115 -2.454343 -0.011317 -0.122713 2.454313 -0.000000 0.000000 0.000000 -0.000000 0.000000 0.000000 0.000000 0.000000 0.000000 -0.000000 0.000000 0.000000 -0.000000 0.000000 0.000000 -0.000000 0.000000 0.000000 1.454407 -3.004947 -0.948849 0.000000 0.000000 0.000000 0.000000 0.000000 0.000000 -0.000000 0.000000 0.000000 -0.000000 0.000000 0.000000 -0.143385 -3.474736 0.970254 0.202539 3.471793 -0.980742 0.000000 0.000000 0.000000 0.000000 0.000000 0.000000 -0.011317 -0.122713 2.454313 -0.000000 0.000000 0.000000 -0.140166 -1.389317 0.047236 0.000000 0.000000 0.000000 -0.011317 -0.122713 2.454313 -0.000000 0.000000 0.000000 0.757760 7.012968 -0.997615 0.000000 0.000000 0.000000
-68.239917 86.554797 330.848370 0.023835 0.175058 -2.461482 -0.016294 -0.175920 2.461420 -0.000000 0.000000 0.000000 -0.000000 0.000000 0.000000 0.000000 0.000000 0.000000 -0.000000 0.000000 0.000000 -0.000000 0.000000 0.000000 -0.418535 -0.846593 -0.058201 2.250823 -3.033773 -1.179811 0.000000 0.000000 0.000000 0.000000 0.000000 0.000000 -0.000000 0.000000 0.000000 -0.000000 0.000000 0.000000 -0.227009 -4.768437 1.340110 0.131276 3.685867 -1.362452 0.000000 0.000000 0.000000 0.000000 0.000000 0.000000 -0.016294 -0.175920 2.461420 -0.000000 0.000000 0.000000 -0.122285 -1.144805 0.049353 0.000000 0.000000 0.000000 -0.016294 -0.175920 2.461420 -0.000000 0.000000 0.000000 0.929439 8.116716 -1.241698 0.000000 0.000000 0.000000
-68.210273 86.552864 330.860787 0.030437 0.222600 -2.469510 -0.020818 -0.223705 2.469410 -0.000000 0.000000 0.000000 -0.000000 0.000000 0.000000 0.000000 0.000000 0.000000 -0.000000 0.000000 0.000000 -0.000000 0.000000 0.000000 -0.750918 -1.194951 -0.032883 2.761582 -3.203551 -1.371692 0.000000 0.000000 0.000000 0.000000 0.000000 0.000000 -0.000000 0.000000 0.000000 -0.000000 0.000000 0.000000 -0.326102 -5.771462 1.634459 0.271809 4.051001 -1.714596 0.000000 0.000000 0.000000 0.000000 0.000000 0.000000 -0.020818 -0.223705 2.469410 -0.000000 0.000000 0.000000 -0.000000 0.000000 0.000000 0.000000 0.000000 0.000000 -0.020818 -0.223705 2.469410 -0.000000 0.000000 0.000000 0.965219 7.855631 -1.331937 0.000000 0.000000 0.000000
-68.180724 86.548635 330.875948 0.036370 0.264748 -2.478411 -0.024888 -0.266073 2.478269 -0.000000 0.000000 0.000000 -0.000000 0.000000 0.000000 0.000000 0.000000 0.000000 -0.000000 0.000000 0.000000 -0.000000 0.000000 0.000000 -1.179689 -1.577318 0.012929 3.185581 -3.004100 -1.487293 0.000000 0.000000 0.000000 0.000000 0.000000 0.000000 -0.000000 0.000000 0.000000 -0.000000 0.000000 0.000000 -0.444852 -6.488080 1.854436 0.451670 3.992296 -2.018870 0.000000 0.000000 0.000000 0.000000 0.000000 0.000000 -0.024888 -0.266073 2.478269 -0.000000 0.000000 0.000000 0.088406 1.203458 0.007018 0.000000 0.000000 0.000000 -0.024888 -0.266073 2.478269 -0.000000 0.000000 0.000000 0.861107 6.173256 -1.269034 0.000000 0.000000 0.000000
-68.134685 86.546711 330.885404 0.058830 0.319636 -2.488579 -0.044897 -0.321889 2.488288 -0.000000 0.000000 0.000000 -0.000000 0.000000 0.000000 0.000000 0.000000 0.000000 -0.000000 0.000000 0.000000 -0.000000 0.000000 0.000000 -1.737288 -1.034848 0.322036 2.227604 -3.298839 -1.463080 0.000000 0.000000 0.000000 0.000000 0.000000 0.000000 -0.000000 0.000000 0.000000 -0.000000 0.000000 0.000000 -0.663330 -6.551267 1.916430 0.918879 3.641820 -2.230448 0.000000 0.000000 0.000000 0.000000 0.000000 0.000000 -0.044897 -0.321889 2.488288 -0.000000 0.000000 0.000000 -0.000000 0.000000 0.000000 0.000000 0.000000 0.000000 -0.500385 -1.243229 2.367753 0.482813 1.763943 0.087404 0.749713 3.100784 -1.187974 0.000000 0.000000 0.000000
-68.107766 86.537223 330.909372 0.060411 0.349721 -2.509470 -0.045042 -0.352031 2.509147 -0.000000 0.000000 0.000000 -0.000000 0.000000 0.000000 0.000000 0.000000 0.000000 -0.000000 0.000000 0.000000 -0.000000 0.000000 0.000000 -2.386316 -1.793105 0.342641 3.123612 -1.055397 -1.231463 0.000000 0.000000 0.000000 0.000000 0.000000 0.000000 -0.000000 0.000000 0.000000 -0.064529 0.820581 0.057143 -0.795863 -7.502553 1.921331 0.627653 1.295242 -2.334719 0.000000 0.000000 0.000000 0.000000 0.000000 0.000000 -0.045042 -0.352031 2.509147 -0.000000 0.000000 0.000000 0.163486 -0.947036 -0.360275 0.000000 0.000000 0.000000 -0.577490 -1.243766 2.384137 0.529158 1.687393 0.084696 0.003624 -8.072794 -0.529006 0.000000 0.000000 0.000000
-68.090925 86.523996 330.946370 0.060079 0.368136 -2.527937 -0.043784 -0.370427 2.527603 -0.000000 0.000000 0.000000 -0.000000 0.000000 0.000000 0.000000 0.000000 0.000000 -0.000000 0.000000 0.000000 -0.000000 0.000000 0.000000 -3.099632 -3.473161 0.137234 4.094024 1.437343 -1.032327 0.000000 0.000000 0.000000 0.000000 0.000000 0.000000 -0.000000 0.000000 0.000000 -0.060242 0.831390 0.056376 -1.461560 -7.631427 2.077629 1.375538 1.609699 -2.591848 0.000000 0.000000 0.000000 0.000000 0.000000 0.000000 -0.043784 -0.370427 2.527603 -0.000000 0.000000 0.000000 0.842544 7.987972 -0.351642 0.000000 0.000000 0.000000 -0.624334 -1.182102 2.405425 0.614149 0.786531 0.110096 -0.633350 -15.797044 0.056147 0.000000 0.000000 0.000000
-68.098009 86.510945 331.000938 0.044601 0.378254 -2.560086 -0.027661 -0.379869 2.559847 -0.000000 0.000000 0.000000 -0.000000 0.000000 0.000000 0.000000 0.000000 0.000000 -0.000000 0.000000 0.000000 -0.000000 0.000000 0.000000 -4.128271 -4.796972 0.095143 4.197798 3.019917 -0.869777 0.000000 0.000000 0.000000 0.000000 0.000000 0.000000 -0.000000 0.000000 0.000000 -0.035267 0.832157 0.049003 -1.543709 -8.234077 2.253624 1.994629 1.502002 -3.041216 0.000000 0.000000 0.000000 0.000000 0.000000 0.000000 -0.027661 -0.379869 2.559847 -0.000000 0.000000 0.000000 1.307710 14.814510 -0.327125 0.000000 0.000000 0.000000 -0.584322 -1.073051 2.450549 0.585817 0.668696 0.098821 -1.396851 -27.558210 1.012409 0.000000 0.000000 0.000000
-68.104506 86.490566 331.048950 0.009211 0.343745 -2.558079 0.006140 -0.343814 2.558070 -0.000000 0.000000 0.000000 -0.000000 0.000000 0.000000 0.000000 0.000000 0.000000 -0.000000 0.000000 0.000000 -0.000000 0.000000 0.000000 -4.751775 -5.512883 0.081308 5.909963 3.265907 -1.365983 0.000000 0.000000 0.000000 0.000000 0.000000 0.000000 -0.000000 0.000000 0.000000 -0.067496 0.813981 0.057715 -0.992182 -8.832016 2.316326 1.828535 0.864344 -3.275661 0.000000 0.000000 0.000000 0.000000 0.000000 0.000000 0.006140 -0.343814 2.558070 -0.000000 0.000000 0.000000 1.344534 15.226768 -0.338890 0.000000 0.000000 0.000000 -0.541921 -0.935961 2.459118 0.572981 0.568044 0.089990 -1.662752 -31.461371 1.522855 0.000000 0.000000 0.000000
-68.073641 86.464468 331.051715 -0.007454 0.299459 -2.560344 0.020824 -0.298827 2.560418 -0.000000 0.000000 0.000000 -0.000000 0.000000 0.000000 0.000000 0.000000 0.000000 -0.000000 0.000000 0.000000 -0.000000 0.000000 0.000000 -5.742915 -4.840487 0.558887 9.736456 2.022152 -2.659596 0.000000 0.000000 0.000000 0.000000 0.000000 0.000000 -0.000000 0.000000 0.000000 -0.000000 0.000000 0.000000 -1.060564 -8.370773 2.485835 2.289400 0.415803 -3.609742 0.000000 0.000000 0.000000 0.000000 0.000000 0.000000 0.020824 -0.298827 2.560418 -0.000000 0.000000 0.000000 0.962441 11.278739 -0.188673 0.000000 0.000000 0.000000 0.020824 -0.298827 2.560418 -0.000000 0.000000 0.000000 -1.309556 -22.574792 1.363129 0.000000 0.000000 0.000000
-68.028879 86.430460 331.028583 -0.024149 0.252945 -2.576906 0.035497 -0.251604 2.577037 -0.000000 0.000000 0.000000 -0.000000 0.000000 0.000000 0.000000 0.000000 0.000000 -0.000000 0.000000 0.000000 -0.000000 0.000000 0.000000 -5.654286 -3.209018 0.991541 10.794144 0.830638 -2.957975 0.000000 0.000000 0.000000 0.000000 0.000000 0.000000 -0.000000 0.000000 0.000000 -0.000000 0.000000 0.000000 -1.279720 -9.003040 2.696564 2.619799 2.438934 -3.805672 0.000000 0.000000 0.000000 0.000000 0.000000 0.000000 0.035497 -0.251604 2.577037 -0.000000 0.000000 0.000000 0.841026 10.830848 -0.062804 0.000000 0.000000 0.000000 0.035497 -0.251604 2.577037 -0.000000 0.000000 0.000000 -0.822463 -12.263638 0.941072 0.000000 0.000000 0.000000
-67.949580 86.393244 330.972290 -0.066312 0.157866 -2.656797 0.073559 -0.154622 2.656988 -0.000000 0.000000 0.000000 0.053639 -1.120168 -0.113148 0.000000 0.000000 0.000000 -0.499210 -0.692970 0.046980 0.499814 0.692534 -0.053020 -4.429355 -0.140193 1.431984 12.195991 -1.485934 -3.128863 0.000000 0.000000 0.000000 0.000000 0.000000 0.000000 -0.000000 0.000000 0.000000 -0.000000 0.000000 0.000000 -1.145565 -9.227474 2.732760 2.949109 3.899392 -3.923946 0.000000 0.000000 0.000000 0.000000 0.000000 0.000000 0.073559 -0.154622 2.656988 -0.000000 0.000000 0.000000 0.256813 1.538488 -0.205421 0.000000 0.000000 0.000000 0.073559 -0.154622 2.656988 -0.000000 0.000000 0.000000 -0.578520 -8.275914 0.660669 0.000000 0.000000 0.000000
-67.880066 86.358009 330.913272 -0.178021 0.004371 -2.707281 0.178028 0.004042 2.707281 -0.000000 0.000000 0.000000 0.158366 -1.537711 -0.137960 0.000000 0.000000 0.000000 -0.807332 -0.884140 0.042872 0.389200 -0.150199 0.016761 -3.194809 3.347697 1.779234 11.337408 -4.218192 -3.047183 0.000000 0.000000 0.000000 0.000000 0.000000 0.000000 -0.571635 -0.701189 -0.161178 0.569703 0.702759 0.154186 -1.372548 -9.639694 2.884295 4.269752 6.112738 -4.459721 0.000000 0.000000 0.000000 0.000000 0.000000 0.000000 0.178028 0.004042 2.707281 -0.000000 0.000000 0.000000 -0.181609 -5.512547 -0.412332 0.000000 0.000000 0.000000 0.178028 0.004042 2.707281 -0.000000 0.000000 0.000000 -0.436583 -9.753042 0.174130 0.000000 0.000000 0.000000
-67.690555 86.307648 330.785321 -0.262108 -0.273981 -2.725650 0.248786 0.286133 2.724402 -0.000000 0.000000 0.000000 0.081990 -1.884871 -0.191241 0.000000 0.000000 0.000000 -1.189024 -1.221871 0.048843 0.570627 -0.240402 0.034050 -2.674812 5.774167 2.147912 8.827717 -5.671048 -2.766056 0.000000 0.000000 0.000000 0.000000 0.000000 0.000000 -0.700220 -1.086914 -0.240970 0.695768 1.089768 0.227711 -1.345756 -9.193818 2.759751 4.462824 5.020571 -4.446531 0.000000 0.000000 0.000000 0.000000 0.000000 0.000000 0.248786 0.286133 2.724402 -0.000000 0.000000 0.000000 -0.573514 -13.028767 -0.890329 0.000000 0.000000 0.000000 0.248786 0.286133 2.724402 -0.897514 0.008800 -0.220220 0.689058 -9.306088 -0.040410 0.000000 0.000000 0.000000
